<mxfile host="app.diagrams.net" agent="Mozilla/5.0 (Macintosh; Intel Mac OS X 10_15_7) AppleWebKit/605.1.15 (KHTML, like Gecko) Version/17.6 Safari/605.1.15" version="24.7.13">
  <diagram name="Page-1" id="mVVzXniBTKV5QnPk6kZt">
    <mxGraphModel dx="2638" dy="2377" grid="1" gridSize="10" guides="1" tooltips="1" connect="1" arrows="1" fold="1" page="1" pageScale="1" pageWidth="827" pageHeight="1169" math="0" shadow="0">
      <root>
        <mxCell id="0" />
        <mxCell id="1" parent="0" />
        <mxCell id="qg8MmeF7wyBkdZ5XozIb-49" value="Public subnet" style="points=[[0,0],[0.25,0],[0.5,0],[0.75,0],[1,0],[1,0.25],[1,0.5],[1,0.75],[1,1],[0.75,1],[0.5,1],[0.25,1],[0,1],[0,0.75],[0,0.5],[0,0.25]];outlineConnect=0;gradientColor=none;html=1;whiteSpace=wrap;fontSize=12;fontStyle=0;container=1;pointerEvents=0;collapsible=0;recursiveResize=0;shape=mxgraph.aws4.group;grIcon=mxgraph.aws4.group_security_group;grStroke=0;strokeColor=#7AA116;fillColor=#F2F6E8;verticalAlign=top;align=left;spacingLeft=30;fontColor=#248814;dashed=0;" vertex="1" parent="1">
          <mxGeometry x="760" y="300" width="390" height="360" as="geometry" />
        </mxCell>
        <mxCell id="qg8MmeF7wyBkdZ5XozIb-48" value="Public subnet" style="points=[[0,0],[0.25,0],[0.5,0],[0.75,0],[1,0],[1,0.25],[1,0.5],[1,0.75],[1,1],[0.75,1],[0.5,1],[0.25,1],[0,1],[0,0.75],[0,0.5],[0,0.25]];outlineConnect=0;gradientColor=none;html=1;whiteSpace=wrap;fontSize=12;fontStyle=0;container=1;pointerEvents=0;collapsible=0;recursiveResize=0;shape=mxgraph.aws4.group;grIcon=mxgraph.aws4.group_security_group;grStroke=0;strokeColor=#7AA116;fillColor=#F2F6E8;verticalAlign=top;align=left;spacingLeft=30;fontColor=#248814;dashed=0;" vertex="1" parent="1">
          <mxGeometry x="150" y="310" width="370" height="350" as="geometry" />
        </mxCell>
        <mxCell id="qg8MmeF7wyBkdZ5XozIb-1" value="Region" style="points=[[0,0],[0.25,0],[0.5,0],[0.75,0],[1,0],[1,0.25],[1,0.5],[1,0.75],[1,1],[0.75,1],[0.5,1],[0.25,1],[0,1],[0,0.75],[0,0.5],[0,0.25]];outlineConnect=0;gradientColor=none;html=1;whiteSpace=wrap;fontSize=12;fontStyle=0;container=1;pointerEvents=0;collapsible=0;recursiveResize=0;shape=mxgraph.aws4.group;grIcon=mxgraph.aws4.group_region;strokeColor=#00A4A6;fillColor=none;verticalAlign=top;align=left;spacingLeft=30;fontColor=#147EBA;dashed=1;" vertex="1" parent="1">
          <mxGeometry x="20" y="130" width="1240" height="1270" as="geometry" />
        </mxCell>
        <mxCell id="qg8MmeF7wyBkdZ5XozIb-6" value="Users" style="sketch=0;outlineConnect=0;fontColor=#232F3E;gradientColor=none;strokeColor=#232F3E;fillColor=#ffffff;dashed=0;verticalLabelPosition=bottom;verticalAlign=top;align=center;html=1;fontSize=12;fontStyle=0;aspect=fixed;shape=mxgraph.aws4.resourceIcon;resIcon=mxgraph.aws4.users;" vertex="1" parent="1">
          <mxGeometry x="610" y="-220" width="60" height="60" as="geometry" />
        </mxCell>
        <mxCell id="qg8MmeF7wyBkdZ5XozIb-12" value="VPC" style="points=[[0,0],[0.25,0],[0.5,0],[0.75,0],[1,0],[1,0.25],[1,0.5],[1,0.75],[1,1],[0.75,1],[0.5,1],[0.25,1],[0,1],[0,0.75],[0,0.5],[0,0.25]];outlineConnect=0;gradientColor=none;html=1;whiteSpace=wrap;fontSize=12;fontStyle=0;container=1;pointerEvents=0;collapsible=0;recursiveResize=0;shape=mxgraph.aws4.group;grIcon=mxgraph.aws4.group_vpc2;strokeColor=#8C4FFF;fillColor=none;verticalAlign=top;align=left;spacingLeft=30;fontColor=#AAB7B8;dashed=0;" vertex="1" parent="1">
          <mxGeometry x="50" y="200" width="1180" height="1180" as="geometry" />
        </mxCell>
        <mxCell id="qg8MmeF7wyBkdZ5XozIb-3" value="Availability Zone" style="fillColor=none;strokeColor=#147EBA;dashed=1;verticalAlign=top;fontStyle=0;fontColor=#147EBA;whiteSpace=wrap;html=1;" vertex="1" parent="qg8MmeF7wyBkdZ5XozIb-12">
          <mxGeometry x="680" y="60" width="480" height="1080" as="geometry" />
        </mxCell>
        <mxCell id="qg8MmeF7wyBkdZ5XozIb-4" value="Availability Zone" style="fillColor=none;strokeColor=#147EBA;dashed=1;verticalAlign=top;fontStyle=0;fontColor=#147EBA;whiteSpace=wrap;html=1;" vertex="1" parent="qg8MmeF7wyBkdZ5XozIb-12">
          <mxGeometry x="50" y="60" width="450" height="1080" as="geometry" />
        </mxCell>
        <mxCell id="qg8MmeF7wyBkdZ5XozIb-36" value="" style="sketch=0;points=[[0,0,0],[0.25,0,0],[0.5,0,0],[0.75,0,0],[1,0,0],[0,1,0],[0.25,1,0],[0.5,1,0],[0.75,1,0],[1,1,0],[0,0.25,0],[0,0.5,0],[0,0.75,0],[1,0.25,0],[1,0.5,0],[1,0.75,0]];outlineConnect=0;fontColor=#232F3E;fillColor=#ED7100;strokeColor=#ffffff;dashed=0;verticalLabelPosition=bottom;verticalAlign=top;align=center;html=1;fontSize=12;fontStyle=0;aspect=fixed;shape=mxgraph.aws4.resourceIcon;resIcon=mxgraph.aws4.auto_scaling2;" vertex="1" parent="qg8MmeF7wyBkdZ5XozIb-12">
          <mxGeometry x="170" y="310" width="60" height="60" as="geometry" />
        </mxCell>
        <mxCell id="qg8MmeF7wyBkdZ5XozIb-39" value="Web Tier" style="text;html=1;align=center;verticalAlign=middle;resizable=0;points=[];autosize=1;strokeColor=none;fillColor=none;flipV=0;flipH=1;rotation=-90;" vertex="1" parent="qg8MmeF7wyBkdZ5XozIb-12">
          <mxGeometry x="40" y="240" width="70" height="30" as="geometry" />
        </mxCell>
        <mxCell id="qg8MmeF7wyBkdZ5XozIb-28" value="AWS Cloud" style="points=[[0,0],[0.25,0],[0.5,0],[0.75,0],[1,0],[1,0.25],[1,0.5],[1,0.75],[1,1],[0.75,1],[0.5,1],[0.25,1],[0,1],[0,0.75],[0,0.5],[0,0.25]];outlineConnect=0;gradientColor=none;html=1;whiteSpace=wrap;fontSize=12;fontStyle=0;container=1;pointerEvents=0;collapsible=0;recursiveResize=0;shape=mxgraph.aws4.group;grIcon=mxgraph.aws4.group_aws_cloud;strokeColor=#232F3E;fillColor=none;verticalAlign=top;align=left;spacingLeft=30;fontColor=#232F3E;dashed=0;" vertex="1" parent="1">
          <mxGeometry x="-30" y="-80" width="1320" height="1510" as="geometry" />
        </mxCell>
        <mxCell id="qg8MmeF7wyBkdZ5XozIb-29" value="" style="sketch=0;points=[[0,0,0],[0.25,0,0],[0.5,0,0],[0.75,0,0],[1,0,0],[0,1,0],[0.25,1,0],[0.5,1,0],[0.75,1,0],[1,1,0],[0,0.25,0],[0,0.5,0],[0,0.75,0],[1,0.25,0],[1,0.5,0],[1,0.75,0]];outlineConnect=0;fontColor=#232F3E;fillColor=#8C4FFF;strokeColor=#ffffff;dashed=0;verticalLabelPosition=bottom;verticalAlign=top;align=center;html=1;fontSize=12;fontStyle=0;aspect=fixed;shape=mxgraph.aws4.resourceIcon;resIcon=mxgraph.aws4.route_53;" vertex="1" parent="qg8MmeF7wyBkdZ5XozIb-28">
          <mxGeometry x="640" y="40" width="60" height="60" as="geometry" />
        </mxCell>
        <mxCell id="qg8MmeF7wyBkdZ5XozIb-23" value="" style="sketch=0;outlineConnect=0;fontColor=#232F3E;gradientColor=none;fillColor=#8C4FFF;strokeColor=none;dashed=0;verticalLabelPosition=bottom;verticalAlign=top;align=center;html=1;fontSize=12;fontStyle=0;aspect=fixed;pointerEvents=1;shape=mxgraph.aws4.internet_gateway;" vertex="1" parent="qg8MmeF7wyBkdZ5XozIb-28">
          <mxGeometry x="652" y="250" width="48" height="48" as="geometry" />
        </mxCell>
        <mxCell id="qg8MmeF7wyBkdZ5XozIb-31" value="" style="endArrow=classic;html=1;rounded=0;exitX=0.545;exitY=0.921;exitDx=0;exitDy=0;exitPerimeter=0;" edge="1" parent="qg8MmeF7wyBkdZ5XozIb-28" source="qg8MmeF7wyBkdZ5XozIb-32" target="qg8MmeF7wyBkdZ5XozIb-23">
          <mxGeometry width="50" height="50" relative="1" as="geometry">
            <mxPoint x="600" y="130" as="sourcePoint" />
            <mxPoint x="570" y="410" as="targetPoint" />
          </mxGeometry>
        </mxCell>
        <mxCell id="qg8MmeF7wyBkdZ5XozIb-32" value="AWS Route 53" style="text;html=1;align=center;verticalAlign=middle;resizable=0;points=[];autosize=1;strokeColor=none;fillColor=none;" vertex="1" parent="qg8MmeF7wyBkdZ5XozIb-28">
          <mxGeometry x="619" y="100" width="100" height="30" as="geometry" />
        </mxCell>
        <mxCell id="qg8MmeF7wyBkdZ5XozIb-33" value="Internet Gateway" style="text;html=1;align=center;verticalAlign=middle;resizable=0;points=[];autosize=1;strokeColor=none;fillColor=none;" vertex="1" parent="qg8MmeF7wyBkdZ5XozIb-28">
          <mxGeometry x="619" y="290" width="110" height="30" as="geometry" />
        </mxCell>
        <mxCell id="qg8MmeF7wyBkdZ5XozIb-41" value="" style="sketch=0;outlineConnect=0;fontColor=#232F3E;gradientColor=none;fillColor=#8C4FFF;strokeColor=none;dashed=0;verticalLabelPosition=bottom;verticalAlign=top;align=center;html=1;fontSize=12;fontStyle=0;aspect=fixed;pointerEvents=1;shape=mxgraph.aws4.application_load_balancer;" vertex="1" parent="qg8MmeF7wyBkdZ5XozIb-28">
          <mxGeometry x="650" y="370" width="50" height="50" as="geometry" />
        </mxCell>
        <mxCell id="qg8MmeF7wyBkdZ5XozIb-42" value="Application&lt;div&gt;Load Balancer&lt;/div&gt;" style="text;html=1;align=center;verticalAlign=middle;resizable=0;points=[];autosize=1;strokeColor=none;fillColor=none;" vertex="1" parent="qg8MmeF7wyBkdZ5XozIb-28">
          <mxGeometry x="624" y="420" width="100" height="40" as="geometry" />
        </mxCell>
        <mxCell id="qg8MmeF7wyBkdZ5XozIb-43" value="" style="endArrow=classic;html=1;rounded=0;exitX=0.497;exitY=0.946;exitDx=0;exitDy=0;exitPerimeter=0;" edge="1" parent="qg8MmeF7wyBkdZ5XozIb-28" source="qg8MmeF7wyBkdZ5XozIb-33" target="qg8MmeF7wyBkdZ5XozIb-41">
          <mxGeometry width="50" height="50" relative="1" as="geometry">
            <mxPoint x="560" y="660" as="sourcePoint" />
            <mxPoint x="610" y="610" as="targetPoint" />
          </mxGeometry>
        </mxCell>
        <mxCell id="qg8MmeF7wyBkdZ5XozIb-47" value="Server Tier" style="text;html=1;align=center;verticalAlign=middle;resizable=0;points=[];autosize=1;strokeColor=none;fillColor=none;rotation=-90;" vertex="1" parent="qg8MmeF7wyBkdZ5XozIb-28">
          <mxGeometry x="110" y="920" width="80" height="30" as="geometry" />
        </mxCell>
        <mxCell id="qg8MmeF7wyBkdZ5XozIb-30" value="" style="endArrow=classic;html=1;rounded=0;entryX=0.5;entryY=0;entryDx=0;entryDy=0;entryPerimeter=0;" edge="1" parent="1" target="qg8MmeF7wyBkdZ5XozIb-29">
          <mxGeometry width="50" height="50" relative="1" as="geometry">
            <mxPoint x="640" y="-140" as="sourcePoint" />
            <mxPoint x="540" y="330" as="targetPoint" />
          </mxGeometry>
        </mxCell>
        <mxCell id="qg8MmeF7wyBkdZ5XozIb-34" value="Auto Scaling group" style="points=[[0,0],[0.25,0],[0.5,0],[0.75,0],[1,0],[1,0.25],[1,0.5],[1,0.75],[1,1],[0.75,1],[0.5,1],[0.25,1],[0,1],[0,0.75],[0,0.5],[0,0.25]];outlineConnect=0;gradientColor=none;html=1;whiteSpace=wrap;fontSize=12;fontStyle=0;container=1;pointerEvents=0;collapsible=0;recursiveResize=0;shape=mxgraph.aws4.groupCenter;grIcon=mxgraph.aws4.group_auto_scaling_group;grStroke=1;strokeColor=#D86613;fillColor=none;verticalAlign=top;align=center;fontColor=#D86613;dashed=1;spacingTop=25;" vertex="1" parent="1">
          <mxGeometry x="140" y="450" width="1030" height="180" as="geometry" />
        </mxCell>
        <mxCell id="qg8MmeF7wyBkdZ5XozIb-37" value="" style="sketch=0;points=[[0,0,0],[0.25,0,0],[0.5,0,0],[0.75,0,0],[1,0,0],[0,1,0],[0.25,1,0],[0.5,1,0],[0.75,1,0],[1,1,0],[0,0.25,0],[0,0.5,0],[0,0.75,0],[1,0.25,0],[1,0.5,0],[1,0.75,0]];outlineConnect=0;fontColor=#232F3E;fillColor=#ED7100;strokeColor=#ffffff;dashed=0;verticalLabelPosition=bottom;verticalAlign=top;align=center;html=1;fontSize=12;fontStyle=0;aspect=fixed;shape=mxgraph.aws4.resourceIcon;resIcon=mxgraph.aws4.auto_scaling2;" vertex="1" parent="qg8MmeF7wyBkdZ5XozIb-34">
          <mxGeometry x="880" y="60" width="60" height="60" as="geometry" />
        </mxCell>
        <mxCell id="qg8MmeF7wyBkdZ5XozIb-38" value="EC2&lt;div&gt;(Web Server)&lt;/div&gt;" style="text;html=1;align=center;verticalAlign=middle;resizable=0;points=[];autosize=1;strokeColor=none;fillColor=none;" vertex="1" parent="qg8MmeF7wyBkdZ5XozIb-34">
          <mxGeometry x="70" y="114" width="90" height="40" as="geometry" />
        </mxCell>
        <mxCell id="qg8MmeF7wyBkdZ5XozIb-44" value="EC2&lt;div&gt;(Web Server)&lt;/div&gt;" style="text;html=1;align=center;verticalAlign=middle;resizable=0;points=[];autosize=1;strokeColor=none;fillColor=none;" vertex="1" parent="qg8MmeF7wyBkdZ5XozIb-34">
          <mxGeometry x="865" y="114" width="90" height="40" as="geometry" />
        </mxCell>
        <mxCell id="qg8MmeF7wyBkdZ5XozIb-46" value="Security Group" style="fontStyle=0;verticalAlign=top;align=center;spacingTop=-2;fillColor=none;rounded=0;whiteSpace=wrap;html=1;strokeColor=#FF0000;strokeWidth=2;dashed=1;container=1;collapsible=0;expand=0;recursiveResize=0;" vertex="1" parent="qg8MmeF7wyBkdZ5XozIb-34">
          <mxGeometry x="40" y="44" width="950" height="110" as="geometry" />
        </mxCell>
        <mxCell id="qg8MmeF7wyBkdZ5XozIb-35" value="Auto Scaling group" style="points=[[0,0],[0.25,0],[0.5,0],[0.75,0],[1,0],[1,0.25],[1,0.5],[1,0.75],[1,1],[0.75,1],[0.5,1],[0.25,1],[0,1],[0,0.75],[0,0.5],[0,0.25]];outlineConnect=0;gradientColor=none;html=1;whiteSpace=wrap;fontSize=12;fontStyle=0;container=1;pointerEvents=0;collapsible=0;recursiveResize=0;shape=mxgraph.aws4.groupCenter;grIcon=mxgraph.aws4.group_auto_scaling_group;grStroke=1;strokeColor=#D86613;fillColor=none;verticalAlign=top;align=center;fontColor=#D86613;dashed=1;spacingTop=25;" vertex="1" parent="1">
          <mxGeometry x="140" y="760" width="1040" height="210" as="geometry" />
        </mxCell>
      </root>
    </mxGraphModel>
  </diagram>
</mxfile>
